Coordinates
version=1
nRows=14
nColumns=33
inDegrees=yes

Units are S.I. units (second, meters, Newtons, ...)
Angles are in degrees.

endheader
time	ground_thorax_rot_x	ground_thorax_rot_y	ground_thorax_rot_z	ground_thorax_tx	ground_thorax_ty	ground_thorax_tz	clav_prot_r	clav_elev_r	scapula_abduction_r	scapula_elevation_r	scapula_upward_rot_r	scapula_winging_r	shoulder_elv_r	plane_of_elev_r	axial_rot_r	elbow_flexion_r	pro_sup_r	wrist_flex_r	wrist_dev_r	clav_prot_l	clav_elev_l	scapula_abduction_l	scapula_elevation_l	scapula_upward_rot_l	scapula_winging_l	shoulder_elv_l	plane_of_elev_l	axial_rot_l	elbow_flexion_l	pro_sup_l	wrist_flex_l	wrist_dev_l
      3.57000000	    -39.98237713	     -9.33774898	     15.12313623	   -180.47937053	    818.00284268	      0.38422912	      9.27081410	    -45.00000000	     42.53800371	    -45.00000000	    -33.47153969	  -1178.06445306	  -2984.99126219	    146.77148163	   -138.64240538	   2171.73831797	     18.66268572	     18.51603455	      8.32061803	     16.61596849	     41.40780842	    -41.77420526	    -45.00000000	    -34.82544409	   2606.81297073	  -2978.05327969	    136.93377101	    179.99999979	   -713.21203448	     -5.99567264	     10.67268874	    -16.83769939
      3.58000000	    -39.88971862	     -9.29108177	     15.24678186	   -185.42446150	    819.67377644	      0.48401156	      9.35628399	    -45.00000000	     42.31579981	    -45.00000000	    -34.15137637	  -1178.41305924	  -2984.76804300	    146.74099491	   -138.01433973	   2171.75431339	     19.43738648	     18.50890089	      8.04942616	     16.57927034	     41.07624266	    -41.55622632	    -45.00000000	    -35.64717426	   2606.99350231	  -2977.81318397	    136.95441434	    179.99999979	   -713.24890366	     -6.33009001	     10.69476384	    -16.82232589
      3.59000000	    -39.75614728	     -9.32926351	     15.44581476	   -190.26545800	    821.29542347	      0.61085150	      9.34017060	    -45.00000000	     42.10923000	    -45.00000000	    -35.19418259	  -1178.77523947	  -2984.48861206	    146.64060805	   -137.33784264	   2171.88638919	     20.45405307	     18.49788663	      7.68850801	     16.48341416	     40.85832476	    -41.29645024	    -45.00000000	    -36.57599658	   2607.15261355	  -2977.58206684	    136.94866081	    179.99999979	   -713.31006354	     -6.62089335	     10.68809783	    -16.84264885
      3.60000000	    -39.61298453	     -9.33978342	     15.65674852	   -194.98369722	    822.87601500	      0.76822791	      9.36604210	    -45.00000000	     41.87264354	    -45.00000000	    -36.23197741	  -1179.11910506	  -2984.24957015	    146.61093067	   -136.77354441	   2171.97496851	     21.71204492	     18.47150026	      7.35961907	     16.38210390	     40.62656523	    -41.05020830	    -45.00000000	    -37.46716945	   2607.27544727	  -2977.37158893	    136.97294705	    179.99999979	   -713.29527533	     -6.81982317	     10.69429361	    -16.90157838
      3.61000000	    -39.52710316	     -9.24748268	     15.63034773	   -199.56005421	    824.41524642	      0.95773501	      9.41839669	    -45.00000000	     41.71814746	    -45.00000000	    -36.95883172	  -1179.42010692	  -2984.10412413	    146.56385167	   -136.25472681	   2172.08703270	     23.07341097	     18.46617782	      7.13934838	     16.34672721	     40.32170709	    -40.80907102	    -45.00000000	    -38.21122515	   2607.45249935	  -2977.15102644	    136.91541648	    179.99999979	   -713.36556326	     -6.69118063	     10.71687835	    -16.99568480
      3.62000000	    -39.30739418	     -9.31375119	     15.91179661	   -203.98603865	    825.91356939	      1.18045030	      9.45224848	    -45.00000000	     41.49534752	    -45.00000000	    -38.11136162	  -1179.82613088	  -2983.91043121	    146.50549091	   -135.76680575	   2172.25342086	     24.68069336	     18.43810290	      6.84380675	     16.26482741	     40.07166346	    -40.61426349	    -45.00000000	    -39.19731252	   2607.52978966	  -2977.02539385	    136.99926721	    179.99999979	   -713.29530930	     -6.50075781	     10.64237905	    -17.17017267
      3.63000000	    -39.12333679	     -9.28130740	     16.15685846	   -208.25014941	    827.36316577	      1.43447593	      9.48984523	    -45.00000000	     41.32138494	    -45.00000000	    -39.25503774	  -1180.23004121	  -2983.75477149	    146.52680730	   -135.38091431	   2172.39217808	     26.45992679	     18.41964254	      6.61180320	     16.22148466	     39.78867798	    -40.41847768	    -45.00000000	    -40.14122565	   2607.53198857	  -2976.87388990	    136.97595061	    179.99999979	   -713.23162421	     -6.16798040	     10.56817163	    -17.36771519
      3.64000000	    -38.97247263	     -9.34346394	     16.16307165	   -212.35421246	    828.75900447	      1.71810316	      9.52928883	    -45.00000000	     41.08698782	    -45.00000000	    -40.20120196	  -1180.44234417	  -2983.62268797	    146.43790477	   -135.15648824	   2172.62718422	     28.31643116	     18.42230879	      6.40416936	     16.13538669	     39.55359306	    -40.14660363	    -45.00000000	    -41.00436686	   2607.63999199	  -2976.71013876	    137.03225328	    179.99999979	   -713.20052647	     -5.68177724	     10.56249742	    -17.56869750
      3.65000000	    -38.79835784	     -9.26295613	     16.18831721	   -216.28408640	    830.08911246	      2.02839124	      9.60920749	    -45.00000000	     40.90365714	    -45.00000000	    -40.87947332	  -1180.79837424	  -2983.54887343	    146.43728999	   -134.62501138	   2172.78565672	     30.22437819	     18.39939591	      6.22114611	     16.09239316	     39.19242907	    -39.99621171	    -45.00000000	    -41.88353413	   2607.72833520	  -2976.58382293	    137.00063671	    179.99999979	   -713.17790142	     -5.07386895	     10.54571691	    -17.80102153
      3.66000000	    -38.57378012	     -9.34107512	     16.36765298	   -220.03959642	    831.34546309	      2.36305131	      9.64829751	    -45.00000000	     40.68866273	    -45.00000000	    -42.03803940	  -1181.13532953	  -2983.47301090	    146.40767791	   -134.33273921	   2173.02931719	     32.26586326	     18.37415030	      6.01369046	     16.01409033	     38.94279905	    -39.75966025	    -45.00000000	    -42.84658931	   2607.69441591	  -2976.44996023	    137.05063570	    179.99999979	   -713.09659245	     -4.50866343	     10.46157998	    -18.04607651
      3.67000000	    -38.41905411	     -9.29448019	     16.34898556	   -223.61697988	    832.51711179	      2.71958887	      9.68232995	    -45.00000000	     40.50469634	    -45.00000000	    -42.88154316	  -1181.41227690	  -2983.48564443	    146.38529650	   -133.95026358	   2173.18231655	     34.32611235	     18.35983807	      5.88110626	     15.96224821	     38.60894335	    -39.60087806	    -45.00000000	    -43.71051746	   2607.74663956	  -2976.35700099	    137.04060425	    179.99999979	   -712.97189086	     -3.84905411	     10.43342966	    -18.31116618
      3.68000000	    -38.18540118	     -9.34716323	     16.45525378	   -227.00646496	    833.59121412	      3.09464992	      9.69168290	    -45.00000000	     40.32429218	    -45.00000000	    -44.12516811	  -1181.68806816	  -2983.41860847	    146.32679984	   -133.87082046	   2173.40464487	     36.62731018	     18.33717756	      5.72043351	     15.87769733	     38.39437022	    -39.30560246	    -45.00000000	    -44.55634625	   2607.65161125	  -2976.24095177	    137.09822640	    179.99999979	   -712.85575537	     -3.24148148	     10.31367854	    -18.56022980
      3.69000000	    -38.19663348	     -9.05434531	     15.96849374	   -230.20288184	    834.55494488	      3.48476450	      9.78470153	    -45.00000000	     40.03544902	    -45.00000000	    -43.65752201	  -1181.43383714	  -2983.34654795	    146.80365851	   -133.00197107	   2173.64441282	     38.51077180	     18.37424709	      5.64321833	     15.58857892	     38.61349840	    -39.01948367	    -45.00000000	    -45.00000000	   2607.84055490	  -2976.01959081	    136.77507321	    179.99999979	   -712.83119634	     -2.25367619	     10.79826957	    -18.79988264
      3.70000000	    -37.93553002	     -9.16286161	     16.09050273	   -233.19584222	    835.39702063	      3.88471604	      9.65587739	    -45.00000000	     40.00043066	    -45.00000000	    -45.00000000	  -1182.11565484	  -2983.59945880	    146.42205010	   -132.56986431	   2173.84580170	     40.73423753	     18.30472516	      5.48764274	     15.62019981	     38.05678887	    -38.72358904	    -45.00000000	    -45.00000000	   2607.66621290	  -2976.31695237	    137.19436191	    179.99999979	   -712.74638337	     -1.45234363	     10.35066590	    -19.12198723
